<?xml version="1.0" encoding="UTF-8"?>
<svg xmlns="http://www.w3.org/2000/svg" xmlns:xlink="http://www.w3.org/1999/xlink" width="301px" height="300px" viewBox="0 0 301 300" version="1.1">
<g id="surface1">
<path style=" stroke:none;fill-rule:nonzero;fill:rgb(0%,0%,0%);fill-opacity:1;" d="M 9.53125 152.5 L 8.527344 152 C 6.269531 150.75 4.515625 148.875 3.261719 146.5 C 1.503906 143.25 0.753906 140.25 0.753906 137.125 L 1.003906 135.5 C 1.003906 133 1.628906 130.75 2.757812 128.625 L 3.761719 126.75 C 4.265625 125.75 5.015625 124.875 5.644531 124 C 6.394531 123.125 6.523438 122 6.269531 121 L 5.644531 119 C 4.890625 116.5 4.390625 114 4.390625 111.5 L 4.011719 110 C 4.011719 107.25 4.765625 104.5 6.523438 102.5 L 7.777344 100.875 C 8.652344 99.625 10.035156 98.875 11.539062 98.375 C 12.792969 98 13.671875 96.75 13.796875 95.25 L 14.046875 91 C 14.046875 87.625 15.675781 84.5 18.183594 82.25 L 21.195312 80 C 21.824219 79.375 22.449219 78.75 22.953125 77.75 C 23.578125 77 23.703125 76 23.578125 75.25 C 23.328125 74 23.578125 73.625 24.207031 73.5 C 26.210938 74.25 27.464844 74 28.34375 73 L 29.972656 70.875 L 34.488281 65.875 C 35.742188 64.625 36.246094 62.375 35.492188 60.625 L 33.988281 57.375 C 33.738281 56.625 33.988281 55.75 34.613281 55.5 C 36.246094 55.5 37.375 56.125 37.875 57.125 L 38.378906 58 C 39.128906 59.5 40.886719 60.25 42.140625 59.625 C 44.898438 58.625 47.15625 58.375 49.289062 58.375 L 53.300781 58.375 C 56.0625 58.375 58.320312 56.5 58.820312 53.625 C 59.320312 50.125 60.578125 47.375 62.332031 45.5 C 64.214844 43.375 66.34375 41.75 68.855469 40.5 C 72.113281 38.75 74.121094 36.25 74.75 33 C 75.625 29 77.757812 26.125 80.644531 24.25 L 90.175781 18.875 L 92.933594 17.25 C 94.5625 16.25 96.070312 15 97.324219 13.5 L 99.832031 10.5 C 101.085938 9.25 102.339844 8.375 103.84375 8 C 105.097656 7.625 106.855469 7.375 108.359375 7.5 L 113.375 7.875 C 115.886719 7.875 117.890625 8.5 119.898438 9.375 L 121.152344 10 C 122.40625 10.5 123.660156 10.25 124.289062 9.375 L 125.417969 8.75 L 130.808594 3.125 C 132.0625 1.875 133.570312 1.375 135.199219 1.625 C 136.828125 1.875 138.460938 2.5 139.964844 3.25 C 142.222656 4.5 144.105469 5 146.234375 5 L 147.488281 5 C 150.25 5 153.007812 5.375 155.765625 6 L 157.648438 6.5 C 159.53125 7 161.410156 6.25 162.664062 4.75 C 163.042969 4.125 163.917969 4 164.421875 4.5 C 164.796875 4.75 164.921875 5 165.046875 5.375 C 165.300781 7.875 166.804688 9.75 168.8125 10.375 L 170.816406 11 C 172.949219 11.625 174.832031 13 176.085938 14.75 C 177.339844 16.625 178.84375 18.5 180.601562 19.75 L 181.855469 21 C 183.109375 22.25 184.863281 22.75 186.621094 22.625 L 194.019531 22.625 C 197.03125 22.625 199.914062 23.125 202.796875 24.375 C 205.558594 25.625 208.441406 25.875 211.078125 24.875 C 213.835938 24 216.71875 23.625 219.605469 24 L 224.996094 24.875 C 227.503906 25.125 230.015625 26.375 231.519531 28.25 L 232.144531 28.875 C 233.402344 30.125 234.65625 31.75 235.910156 33.5 C 236.660156 35.125 238.417969 36 240.171875 36 L 247.949219 36 C 249.828125 36 251.710938 36.375 253.214844 37.25 C 254.847656 38.5 256.226562 39.75 257.480469 41 L 258.734375 42.625 C 260.238281 44.375 260.992188 46.75 260.867188 49.25 C 260.867188 51.25 262.371094 53 264.378906 53 L 266.886719 53.25 C 268.640625 53.25 270.148438 54.5 271.027344 56.125 L 272.28125 58.625 L 275.539062 65.875 C 276.042969 67.125 276.167969 68.375 276.042969 69.375 C 276.042969 70.625 276.417969 71.625 277.296875 72.125 L 278.550781 73 C 280.179688 74.25 281.058594 76.125 280.808594 78.25 L 279.929688 84.125 L 279.679688 86.625 C 279.429688 87.875 280.054688 89.5 281.183594 90.375 C 283.066406 91.625 283.941406 93.25 284.070312 95.125 L 284.070312 97.625 C 284.070312 98.875 283.816406 100.375 282.816406 101.375 C 282.0625 102.375 281.558594 103.625 281.558594 105.125 L 281.9375 108 C 281.9375 110 283.191406 111.75 284.445312 113 C 286.199219 114.25 287.203125 116.25 287.453125 118.25 C 287.957031 121.375 288.082031 123.875 288.082031 126.375 L 288.082031 129.25 C 288.082031 130.25 288.082031 131.25 288.457031 132.25 C 288.710938 133.125 289.335938 134 290.089844 134.5 L 292.597656 136.375 C 295.105469 138 296.859375 140.125 297.863281 143 C 299.117188 145.75 299.496094 148.625 299.496094 151.5 L 299.496094 152.5 C 299.496094 154.75 299.246094 157.125 298.492188 159.25 C 297.863281 161.5 297.988281 163.625 298.867188 165.5 C 299.871094 167.25 300.5 169.25 300.75 171.375 C 301.25 173.875 301 176.375 300.121094 178.375 L 299.871094 179.25 C 299.246094 180.75 298.242188 182.125 296.988281 183.25 C 295.734375 184.5 294.476562 185.25 293.726562 186.125 C 292.972656 186.875 292.472656 188.125 292.847656 189.25 L 293.222656 191 C 293.851562 193.5 293.851562 196 293.222656 198.25 L 293.222656 199.25 C 292.722656 201.125 291.96875 202.75 291.21875 204.25 C 290.339844 205.875 289.085938 207.125 287.453125 208 L 285.574219 209.25 C 284.695312 209.75 284.070312 210.875 284.070312 212 C 284.070312 213.25 283.566406 214.5 282.816406 215.25 L 280.933594 217.75 C 279.679688 219.375 278.046875 220.75 276.292969 221.5 C 274.535156 222.75 273.03125 224 271.902344 225.25 C 270.648438 226.75 269.644531 228.5 269.144531 230.25 C 268.640625 232.5 266.886719 233.75 265.003906 233.75 L 258.234375 233.75 C 256.476562 233.75 254.847656 235 254.09375 236.5 C 253.214844 238.5 252.339844 239.875 251.210938 241.125 C 249.957031 242.375 249.203125 243.875 248.703125 245.625 C 248.449219 247.125 247.195312 248.125 245.941406 247.625 C 244.3125 246.875 242.679688 247.625 241.929688 248.875 C 240.421875 251.375 238.917969 253.25 237.289062 254.875 L 236.410156 255.625 C 234.78125 256.875 232.648438 257.875 230.765625 257.875 C 228.507812 257.875 227.378906 258.875 227.003906 260.375 C 226.628906 261.625 226.378906 263.25 226.25 264.625 C 226 266.125 225.5 267.5 224.996094 268.75 L 224.371094 269.5 C 223.117188 271.375 222.113281 273.25 220.859375 274.875 L 220.355469 275.625 C 218.726562 277.75 216.59375 279.375 214.085938 280 C 211.078125 281 208.441406 281.25 205.808594 281.25 L 204.054688 281.25 C 202.796875 281.25 201.542969 282 200.667969 283.25 L 199.914062 284.5 L 199.160156 286 L 197.53125 288.75 C 196.277344 291 194.394531 292.5 191.886719 293.25 C 189.378906 293.875 186.496094 294.125 183.859375 294 L 181.855469 293.75 C 180.097656 293.75 178.46875 293.25 176.835938 292.5 C 175.582031 292 173.828125 292.5 173.074219 293.75 C 171.820312 295.5 170.316406 296.5 168.683594 297 L 164.921875 298.25 C 162.414062 298.875 159.65625 298.875 157.023438 298.25 L 155.015625 297.625 C 153.761719 297.625 152.507812 297 151.503906 296.375 C 150.25 295.75 148.996094 295.5 147.742188 295.625 L 146.109375 295.875 C 143.601562 296.125 141.34375 295.875 139.085938 295.25 L 135.699219 294.5 C 134.195312 294 132.816406 293 131.9375 291.625 C 131.3125 290.375 129.933594 289.375 128.175781 289.125 L 124.164062 289.125 C 121.652344 288.75 119.398438 287.875 117.890625 286 L 112.875 281.25 L 111.121094 279.75 L 108.359375 277.75 L 106.730469 276.5 C 104.847656 275.25 102.589844 274.25 100.207031 274 L 92.683594 272.75 C 91.929688 272.75 91.429688 272.5 90.675781 272.375 L 87.792969 271.75 C 86.539062 271.5 85.285156 270.5 84.40625 269.25 C 83.652344 268 82.273438 267.5 81.019531 268 C 78.511719 269 76.503906 269.25 74.496094 269.625 L 72.742188 269.625 C 69.480469 269.875 66.472656 269.375 63.460938 268 C 60.449219 266.75 58.445312 264.875 56.5625 262.5 C 55.058594 260.375 52.800781 258.75 50.042969 258.25 L 46.53125 257.5 C 44.019531 257 41.511719 256 39.253906 254.5 C 36.746094 252.75 35.492188 251.125 34.488281 249.125 C 33.484375 247.25 32.859375 245.125 32.734375 242.875 L 32.734375 241.875 C 32.484375 239.375 30.726562 237.125 28.34375 236.5 C 25.460938 235.625 23.328125 234.375 21.445312 232.75 C 19.691406 231.125 18.6875 228.75 18.6875 226.25 L 18.9375 220.75 C 18.9375 218.625 18.3125 216.75 16.804688 215.375 C 15.300781 213.875 14.296875 212 14.296875 210 L 13.921875 205.5 C 13.671875 202.25 13.042969 199 12.289062 195.75 C 11.539062 192.875 12.667969 190 15.050781 188.625 L 15.929688 188 C 17.183594 187.125 17.683594 185.5 16.929688 184 L 15.929688 182.75 C 14.671875 181.5 13.417969 180.625 12.164062 180.25 C 11.160156 180 10.910156 179 10.910156 178.375 L 12.164062 176.875 C 12.917969 176 12.792969 174.625 12.164062 173.875 C 11.160156 172.875 10.660156 171.625 10.535156 170.375 L 10.285156 161.625 C 10.285156 159.875 10.535156 158.125 11.035156 156.375 C 11.539062 154.875 11.035156 153.125 9.53125 152.375 Z M 133.695312 136 C 134.570312 135.125 134.445312 133.5 133.695312 132.875 C 132.441406 131.875 131.5625 130.75 130.808594 129.5 L 129.554688 127.5 C 128.675781 125.875 127.546875 124.5 126.292969 123.25 L 126.042969 123 C 124.789062 122 123.910156 120.75 123.160156 119.25 C 122.53125 118 122.53125 116.75 123.160156 115.5 L 123.910156 114.25 C 124.664062 113 125.164062 111.25 125.164062 109.75 L 125.164062 109.25 C 125.164062 108 124.664062 106.75 123.910156 105.5 C 123.410156 104.5 122.910156 103.25 122.65625 102 L 122.65625 101.25 C 122.28125 99.75 122.65625 98.125 123.660156 96.875 C 124.664062 95.25 125.417969 93.75 125.792969 91.875 L 125.792969 91.625 C 126.292969 90.375 126.042969 88.75 125.292969 87.5 C 124.539062 86.25 124.289062 85 124.789062 83.5 L 125.667969 81 C 126.421875 78.75 127.546875 76.75 129.054688 75 L 130.808594 73.125 L 132.0625 71.625 L 132.816406 70.875 C 133.570312 70.125 133.695312 68.875 133.066406 67.875 C 132.441406 66.625 132.0625 65.375 132.316406 64.125 L 132.566406 62.375 C 132.941406 59.875 133.820312 57.375 135.449219 55.375 L 135.953125 54.875 C 137.832031 52.375 140.214844 50.75 142.976562 49.875 L 146.359375 48.625 C 147.867188 48.125 148.871094 46.5 148.871094 44.875 C 148.871094 42.875 149.496094 41.125 150.625 39.5 L 151.253906 38.875 C 152.507812 36.75 154.011719 34.625 155.015625 32.375 L 155.894531 30.75 C 156.144531 30.375 156.269531 29.875 156.269531 29.5 C 156.269531 27.375 155.015625 25.5 153.007812 25.375 L 147.488281 25 C 144.355469 24.75 141.21875 25 138.210938 25 L 127.546875 26.25 C 125.917969 26.25 124.664062 27.5 124.539062 29.25 C 124.539062 31 123.285156 32.5 121.78125 33 L 117.265625 34.25 L 116.011719 34.625 L 112.246094 35.875 C 109.488281 36.75 107.230469 38.75 105.976562 41.5 L 104.972656 43.125 C 103.71875 45.875 101.585938 48.125 98.953125 49.75 C 96.445312 51.375 95.191406 54 94.941406 57 L 94.941406 58.25 C 94.691406 60.75 93.9375 63.25 92.433594 65 L 91.804688 66 C 90.800781 67.25 90.550781 68.875 91.179688 70.25 C 91.804688 71.75 92.179688 73.375 92.054688 75 L 92.054688 81.625 C 92.054688 83.375 90.800781 84.875 89.546875 85.375 C 87.792969 86 86.664062 87.375 86.160156 89.125 L 85.535156 91.625 C 85.03125 94.125 85.910156 96.625 88.042969 98.125 C 90.050781 99.625 91.304688 101.875 91.804688 104.625 L 91.804688 106.875 C 92.179688 109.375 93.5625 111.875 95.816406 113.125 C 98.074219 114.625 99.832031 116.875 100.835938 119.375 L 101.460938 121.375 C 102.464844 124.125 104.722656 125.75 107.230469 126 L 107.984375 126 C 110.242188 126 112.246094 127.25 113.503906 129.25 C 114.757812 131.25 116.761719 132.625 119.019531 133 L 122.53125 134 C 124.664062 134.625 126.671875 135.75 128.300781 137.375 L 128.550781 137.625 C 129.804688 138.625 131.8125 138.5 132.941406 137.125 L 133.820312 136.125 Z M 147.992188 124.5 C 149.246094 125.25 150.5 124.875 151 123.75 L 151.378906 123.125 C 152.253906 121.375 153.382812 119.625 154.640625 118.125 L 157.148438 114.375 C 157.523438 114.375 157.648438 114.125 157.773438 113.875 L 160.785156 109.875 C 162.039062 108.625 163.542969 107.75 165.300781 107.75 C 166.929688 107.75 168.308594 106.875 169.0625 105.25 C 169.5625 103.5 170.316406 101.875 171.820312 100.5 L 172.449219 99.75 C 173.703125 98.5 174.957031 97.875 176.210938 97.25 C 177.839844 97 179.347656 96.75 180.851562 96.75 L 184.613281 96.75 C 186.117188 96.75 187.371094 96.125 188.125 94.875 C 188.878906 93.625 190.007812 92.75 191.261719 92.125 L 192.515625 91.625 C 194.519531 90.75 196.777344 90.125 199.035156 89.875 L 201.542969 89.625 C 203.050781 89.625 204.679688 89.625 206.183594 90.5 C 207.4375 91.375 209.070312 91.25 210.324219 90.25 L 211.203125 89.75 C 213.082031 88.5 215.214844 87.5 217.472656 87.25 L 217.722656 87.25 C 220.230469 86.75 222.488281 86.75 224.996094 86.875 L 226.25 86.875 C 228.761719 87.25 230.890625 88.125 232.523438 90 L 232.898438 90.5 C 234.152344 91.75 236.160156 92.75 237.914062 92.75 L 240.046875 92.75 C 240.675781 92.75 241.300781 92.5 241.679688 91.875 C 242.054688 91.5 242.679688 91.125 243.308594 91.125 L 244.5625 91.125 C 246.316406 91.125 247.949219 91.625 249.578125 92.125 L 251.710938 93 C 253.71875 93.625 255.851562 94.25 257.980469 94.5 L 259.488281 94.5 C 260.492188 94.5 261.117188 93.875 261.117188 93 C 261.117188 91.75 260.867188 90.5 260.238281 89.5 L 259.363281 87.5 C 258.359375 85.875 257.605469 84.125 256.851562 82.5 L 256.601562 81.875 C 255.976562 80.625 255.976562 79.375 256.601562 78.125 L 256.601562 77.5 C 256.851562 76.5 256.351562 75.375 255.347656 75 L 254.34375 75 C 252.339844 74.375 250.582031 73.25 249.328125 71.625 L 248.074219 70.375 C 246.820312 69.125 246.066406 67.25 245.566406 65.375 C 244.9375 63.75 243.558594 62.5 241.804688 62.5 L 236.535156 62.5 C 234.65625 62.25 233.023438 61.25 231.894531 59.75 L 231.394531 59.125 C 230.515625 57.875 229.761719 56.375 229.261719 54.875 C 228.632812 53.625 227.253906 52.875 226 53.25 L 224.496094 53.75 C 221.988281 54.625 219.480469 55 216.972656 54.75 L 214.964844 54.5 C 212.832031 54.5 210.824219 53.625 209.195312 52.375 L 207.941406 51.5 C 206.9375 50.75 205.933594 50.25 204.804688 49.75 C 203.550781 49.25 202.546875 49.5 201.796875 50.375 L 201.167969 51.125 C 199.914062 52.375 198.160156 53.375 196.402344 53.625 L 189.628906 54 C 188.375 54 187.121094 54.625 186.242188 55.5 C 185.242188 56.375 184.113281 57 182.859375 57.25 L 182.605469 57.25 C 181.351562 57.25 180.097656 58.125 178.84375 59 L 178.84375 59.25 C 177.589844 60.5 175.960938 61.125 174.328125 61.125 L 173.828125 61.375 C 172.324219 61.375 170.816406 61.375 169.3125 61.75 L 167.808594 61.75 C 165.675781 62.125 164.046875 63.875 163.542969 66.125 L 163.042969 69 C 162.664062 71 161.789062 72.75 160.535156 74.375 C 159.277344 75.875 157.773438 76.875 155.894531 76.875 L 153.761719 76.875 C 152.507812 77.125 151.253906 78.5 151.503906 80 C 151.753906 82.125 151.503906 84 151.128906 85.875 L 150.625 88 C 150.125 89.875 148.871094 91.375 147.238281 92 L 146.488281 92.375 L 146.234375 92.375 C 145.484375 92.875 144.980469 94 145.609375 94.875 C 146.359375 96.125 146.613281 97.375 146.488281 98.625 L 146.109375 102.625 C 146.109375 104.125 145.484375 105.5 144.855469 106.75 C 144.105469 108 144.105469 109.25 144.605469 110.5 L 145.859375 113.25 C 146.488281 114.5 146.613281 115.75 146.234375 117.25 C 145.859375 118.5 145.609375 119.75 145.734375 121 C 145.734375 122.25 146.488281 123.5 147.488281 124 Z M 247.070312 214.875 C 248.324219 216.125 250.207031 216.625 251.710938 215.625 L 254.21875 214 C 255.472656 213.125 256.476562 211.875 256.980469 210.25 L 256.980469 210 L 258.234375 206.25 L 258.984375 205 L 259.488281 203.75 L 259.988281 202.875 C 260.492188 201.875 261.242188 201.125 262.496094 200.75 L 263 200.5 C 264.003906 200.25 264.628906 199.25 264.628906 198.25 C 264.628906 197 265.257812 196 265.882812 195.125 L 266.886719 194.25 L 269.394531 191 L 269.394531 190.75 C 270.148438 189.75 270.648438 188.625 270.898438 187.375 C 271.152344 186.125 270.898438 184.875 270.398438 183.625 L 270.148438 183.125 C 269.644531 181.875 269.394531 181 269.269531 179.875 L 268.894531 176.375 L 268.515625 172.625 C 268.515625 171.375 269.019531 170.125 269.769531 168.875 C 270.648438 167.875 271.277344 166.625 271.777344 165.375 L 271.777344 164.875 L 272.027344 164.625 C 272.28125 163.375 271.652344 162.125 270.523438 162.125 C 269.269531 161.5 268.015625 160.5 267.640625 159 L 267.261719 158.25 C 266.636719 156 266.257812 153.75 266.257812 151.5 L 266.511719 145.25 L 266.511719 144.875 C 266.511719 142.75 264.753906 141.125 262.746094 141.125 L 262.496094 141.125 C 259.988281 141.125 257.980469 140.375 256.226562 138.625 L 255.222656 137.375 L 252.714844 134.5 L 249.453125 130.75 C 248.199219 129 246.945312 127.5 245.316406 126 C 244.0625 124.75 242.179688 123.5 240.296875 123.25 L 237.789062 122.875 C 236.535156 122.625 234.90625 122 233.527344 121.125 C 232.523438 120.375 231.015625 120.625 230.015625 121.625 L 228.382812 123.375 L 227.632812 123.875 C 226.753906 124.125 225.875 123.625 225.5 122.625 C 224.996094 121.125 224.996094 119.375 225.75 117.875 L 225.75 117.125 C 225.75 116.25 224.996094 115.625 224.246094 115.875 L 222.238281 115.875 C 219.980469 115.875 217.722656 115.625 215.589844 114.625 L 214.335938 114.125 C 213.082031 113.5 211.578125 113.125 210.199219 113.125 C 208.945312 113.125 207.691406 113.375 206.4375 114.125 L 205.933594 114.5 C 204.429688 115.5 202.671875 116 200.917969 116.125 L 196.777344 116.125 C 194.898438 116.125 193.015625 116.75 191.761719 117.75 C 190.132812 118.75 188.375 119.375 186.496094 119.75 L 183.109375 120.25 C 181.601562 120.625 179.972656 121.25 178.59375 122.375 C 177.339844 123.625 175.582031 124.375 173.953125 124.875 L 173.324219 125.125 C 171.320312 125.75 169.5625 127 168.308594 128.875 L 166.804688 130.375 C 165.925781 131.625 165.925781 133.125 166.804688 134.375 C 167.558594 135.625 169.0625 136 170.566406 135.625 L 172.449219 134.875 C 173.453125 134.5 174.578125 134.875 175.457031 135.375 C 176.210938 136 177.339844 136.375 178.46875 136.25 L 181.601562 135.875 C 183.359375 135.875 185.113281 135.875 186.871094 136.375 C 188.753906 137 190.382812 137.625 191.886719 138.875 C 193.390625 140.125 195.023438 140.625 196.902344 140.875 C 198.785156 141.125 200.667969 141.5 202.421875 142.125 L 203.675781 142.375 C 204.929688 142.75 205.933594 143.625 206.6875 144.875 C 207.3125 145.875 207.941406 147.375 207.941406 148.625 L 207.941406 149 C 207.941406 150.5 209.195312 151.5 210.449219 151.5 L 211.203125 151.5 C 213.207031 151.5 215.339844 151.75 217.472656 152.375 L 218.351562 152.75 C 219.605469 153.25 220.859375 154 221.738281 155.25 C 222.738281 156.5 223.367188 157.75 223.742188 159 L 224.121094 160.75 C 224.496094 162.625 224.621094 164.5 224.621094 166.5 L 224.621094 167.125 C 224.621094 168.375 225.5 169.625 226.878906 170.125 C 228.132812 170.375 229.636719 170.875 231.015625 171.625 L 231.644531 171.875 C 233.273438 172.875 234.90625 174.125 236.160156 175.625 L 236.785156 176.5 C 238.417969 178.375 239.296875 180.75 239.296875 183.125 L 239.296875 184 C 239.296875 185.875 238.917969 187.75 238.292969 189.5 C 237.789062 191 238.292969 192.75 239.921875 193.25 L 240.800781 193.875 C 242.679688 194.625 244.3125 196 245.566406 197.625 C 246.820312 199.5 247.320312 201.625 247.320312 203.875 L 247.320312 207.625 C 247.070312 208.875 246.695312 209.875 246.066406 210.75 C 245.441406 211.625 245.441406 212.875 246.066406 213.75 L 246.820312 215 Z M 166.804688 150.875 L 166.554688 150.875 C 166.050781 150.875 165.800781 151.5 165.925781 152.125 L 166.429688 154.625 C 166.929688 156.625 167.179688 158.625 167.429688 160.625 C 167.683594 162.625 168.683594 164.375 170.191406 165.625 L 170.691406 165.625 C 172.574219 167.125 173.703125 169.375 173.828125 171.625 L 173.828125 177.875 C 173.578125 179.125 173.828125 180.375 174.578125 181.375 L 175.207031 182 C 176.460938 183.5 176.964844 185.25 177.089844 187 L 177.464844 193.875 C 177.464844 195.5 176.460938 196.875 174.957031 197.125 L 173.703125 197.375 C 172.824219 197.375 172.449219 198.375 172.449219 199.25 C 172.449219 200.25 172.824219 201.375 173.199219 202.375 L 173.199219 202.625 C 173.578125 203.875 173.703125 205.125 173.578125 206.375 L 173.074219 209.75 C 172.574219 212.25 171.820312 214.5 170.566406 216.75 L 169.6875 218.25 C 169.0625 219.5 168.183594 220.25 167.179688 220.75 C 165.925781 221.25 165.046875 222.25 164.671875 223.5 L 163.667969 228 C 163.042969 230.5 161.914062 233 160.40625 235.5 L 160.15625 235.5 C 158.652344 237.5 156.769531 239.25 154.511719 240.5 L 153.007812 241.5 L 149.246094 243.375 C 147.992188 243.875 147.238281 245 146.988281 246.375 L 146.359375 250.5 C 145.984375 253 145.105469 255.125 143.351562 256.75 L 141.722656 258.625 L 139.839844 260.5 L 137.957031 262.5 C 136.453125 264.25 134.195312 265 131.6875 264.625 L 127.171875 263.75 L 123.035156 263.25 L 121.90625 263.25 C 121.402344 263.75 121.277344 264.5 121.652344 265.25 C 122.53125 266.75 123.910156 267.75 125.417969 267.75 L 128.175781 268.25 C 129.429688 268.25 130.933594 268.875 132.1875 269.5 C 133.441406 270.375 134.699219 271 136.203125 271.375 L 136.453125 271.375 C 138.082031 272 139.839844 272.125 141.46875 272 L 143.351562 271.75 C 145.484375 271.5 147.488281 271.75 149.246094 272.5 L 150.75 273 C 151.378906 273.25 152.382812 273 153.007812 272.375 C 153.761719 271.625 154.511719 271.125 155.515625 270.75 L 156.519531 270.5 C 158.152344 270 159.78125 269.75 161.535156 269.75 L 162.539062 269.75 C 164.046875 269.75 165.425781 270 166.679688 270.75 L 167.179688 271 C 168.058594 271.375 169.0625 271 169.6875 270.25 C 170.066406 269.375 170.941406 268.5 171.820312 267.75 L 174.957031 265.625 L 177.964844 263.75 C 179.21875 262.875 180.976562 262.5 182.480469 262.5 L 186.996094 262.125 C 188.753906 261.875 190.257812 260.625 190.757812 258.875 C 191.261719 257 192.011719 255.125 193.265625 253.5 C 194.519531 251.875 195.777344 250.5 197.03125 249.25 C 198.660156 248 200.289062 247.375 202.046875 247.25 L 203.050781 247.25 C 205.054688 246.875 206.5625 245 206.4375 243 L 206.4375 234.625 C 206.6875 233.375 207.1875 231.75 207.941406 230.5 L 210.449219 226.75 L 211.453125 225.5 C 212.203125 224.875 212.707031 224 213.585938 223 L 214.839844 221.375 C 215.589844 220.125 215.589844 218.5 214.589844 217.375 C 213.332031 216.125 212.707031 214.375 212.457031 212.625 L 212.457031 212.125 C 212.203125 210.125 212.203125 208 212.832031 205.875 L 212.832031 205.25 C 213.460938 203.625 214.335938 202 215.339844 200.5 C 216.34375 199.25 216.21875 197.5 214.964844 196.5 L 212.832031 194.625 C 211.078125 193.125 210.074219 190.875 209.820312 188.625 L 209.570312 186.125 C 209.570312 185.375 209.570312 184.5 209.320312 183.625 L 209.070312 181.75 C 208.820312 179.625 207.566406 178 205.808594 176.75 L 204.929688 176.5 C 203.675781 175.75 202.421875 174.625 201.417969 173.125 C 200.414062 171.875 199.914062 170.125 199.539062 168.375 L 199.160156 166.25 C 199.160156 165.5 198.660156 165 197.90625 164.625 L 191.886719 162.75 C 190.632812 162.5 189.378906 161.5 188.5 160.625 L 188.25 160.625 C 187.496094 159.625 186.242188 159.625 185.492188 160.375 L 184.238281 161.625 C 183.984375 162 183.734375 162.125 183.359375 162 C 182.605469 162 182.105469 161.375 182.355469 160.75 C 182.605469 158.75 181.855469 156.75 180.222656 155.5 L 178.59375 154.25 L 174.832031 151.75 C 173.828125 151.375 172.324219 151.75 171.820312 153 L 171.320312 153.75 C 171.320312 154 170.941406 154.125 170.816406 154.25 C 170.316406 154.25 169.5625 154.25 169.5625 153.625 L 169.1875 153 C 168.8125 152.25 167.933594 151.75 167.179688 151.5 Z M 151.753906 163.375 L 151.128906 162.75 C 150.5 162.25 149.871094 162.375 149.246094 163 C 148.367188 164.5 147.617188 166.125 147.238281 167.75 L 147.238281 168 C 146.863281 169.625 145.359375 170.75 143.851562 170.5 L 142.347656 170.5 C 140.59375 170.5 139.210938 172 139.210938 173.75 C 139.210938 176 138.460938 178.25 137.082031 180 L 136.328125 180.75 C 135.074219 182.375 133.191406 183.5 131.3125 184.125 L 130.308594 184.375 C 129.054688 184.75 128.050781 185.625 127.800781 187.125 C 127.800781 188.375 127.046875 189.625 126.042969 190.625 L 124.789062 191.625 C 123.285156 193.25 121.027344 194.125 118.769531 194.375 L 112.5 195 C 110.492188 195 108.734375 196.25 107.480469 198.125 C 106.226562 200 104.347656 201.25 102.464844 201.5 L 99.707031 201.75 C 97.699219 202 95.566406 202 93.433594 201.5 L 92.179688 201.25 L 88.796875 200.375 C 87.539062 200 86.539062 200.375 85.785156 201.25 L 84.53125 202.875 C 82.902344 204.75 80.515625 205.625 78.261719 205.375 L 70.109375 204.375 C 68.855469 204.375 67.851562 203.75 66.722656 203.125 C 65.46875 202.375 64.589844 201.5 63.710938 200.625 L 60.578125 196.875 C 60.199219 196.625 59.574219 196.5 58.945312 196.625 L 57.191406 197.375 L 50.167969 199.125 C 48.914062 199.5 47.28125 199.125 46.027344 198.375 C 44.773438 197.375 43.269531 197.125 41.765625 197.125 L 40.132812 197.125 C 38.628906 197.5 37.625 199.125 38.125 200.625 L 38.628906 203.125 C 39.003906 204.375 38.878906 205.875 38.253906 207.125 C 37.625 208.375 37.75 209.625 38.628906 210.875 L 39.378906 211.875 C 40.382812 213.375 41.890625 214.625 43.144531 215.875 C 44.398438 217.125 45.652344 218.375 46.65625 220 L 48.535156 223.375 C 49.539062 225.125 51.042969 226.125 53.050781 226.125 C 54.933594 226.125 56.8125 226.75 58.320312 228 L 62.082031 231.5 C 63.085938 232.375 64.589844 232.5 65.59375 231.75 L 66.21875 231.5 C 66.972656 231.5 67.472656 232 67.472656 232.75 L 67.472656 233.375 C 67.472656 235 68.726562 236.5 70.359375 237.125 L 76.003906 238.375 C 78.007812 239 80.015625 239.625 81.898438 240.875 L 82.902344 240.875 C 83.902344 240.875 84.78125 240 84.65625 238.875 L 84.65625 234.5 C 84.65625 233.25 85.15625 232 86.160156 231.5 L 86.789062 231.25 C 87.414062 231.5 88.042969 232 87.792969 232.5 L 87.792969 234.625 C 87.792969 236.25 88.292969 237.75 89.421875 238.875 C 90.675781 240.125 92.308594 240.375 93.6875 239.875 C 95.191406 239.25 96.695312 239.125 98.328125 239.25 L 102.96875 239.5 C 105.222656 239.75 107.355469 239.5 109.238281 238.625 C 111.496094 237.875 113.375 236.875 115.132812 235.5 L 115.886719 235 L 119.648438 231.625 C 120.902344 230.375 122.53125 229.75 124.035156 229.75 L 129.054688 229.75 C 131.5625 229.5 133.820312 227.25 134.070312 224.75 L 134.570312 222.25 C 134.570312 220.625 135.324219 219.125 136.453125 217.875 C 137.707031 216.625 138.960938 215.875 140.214844 215.375 L 141.722656 214.75 C 143.851562 213.875 145.484375 212 146.234375 209.75 L 146.988281 206.75 C 147.617188 204.25 148.871094 201.75 150.75 200.125 L 151 199.875 C 152.507812 198.625 152.757812 196.125 151.753906 194.375 L 151.378906 193.5 C 150.5 192.25 150.375 190.375 151 188.75 C 151.628906 187 152.253906 185.5 153.257812 184 L 154.511719 182.25 C 155.015625 181.25 155.015625 179.75 154.261719 178.875 C 153.511719 177.875 153.007812 176.625 153.007812 175.375 L 152.757812 173.625 L 152.757812 169.375 C 153.007812 168.125 152.757812 166.5 152.382812 165.25 Z M 133.820312 153.875 L 133.820312 153.5 C 133.820312 152.25 133.066406 151.5 132.0625 151.5 L 128.804688 151.5 C 127.546875 151.75 126.292969 151.75 125.292969 151.5 L 119.648438 151.5 C 116.761719 151.5 114.003906 151 111.246094 150.25 L 108.234375 149.5 L 105.726562 148.75 L 100.082031 146.875 C 97.074219 146 94.816406 144 93.433594 141.25 L 92.808594 140 C 91.929688 138.125 90.050781 137.125 88.167969 137.5 C 86.035156 137.5 83.902344 137.5 81.898438 136.5 L 80.390625 135.875 C 77.507812 134.625 75.375 132.125 75.375 128.75 L 74.875 125.375 C 74.496094 123.625 73.367188 122 71.863281 121.375 C 70.109375 120.625 68.476562 119.625 66.847656 118.5 L 66.21875 118.125 C 64.339844 116.625 62.707031 114.625 61.832031 112.25 L 61.578125 111.5 C 60.953125 109.5 60.828125 107.375 61.328125 105.25 L 61.578125 104.5 C 62.082031 102.875 62.207031 101.25 62.207031 99.5 C 62.207031 98 61.578125 96.5 60.449219 95.375 L 58.695312 93.75 C 56.6875 92.125 55.433594 89.75 55.308594 87.125 C 55.058594 84.375 55.058594 81.75 55.558594 79.125 L 55.558594 78.375 C 55.558594 76.875 54.304688 75.875 53.050781 75.875 L 52.675781 75.875 C 51.042969 75.875 49.664062 76.875 48.914062 78.375 C 48.285156 80.125 47.28125 81.5 46.152344 82.875 L 45.652344 83.5 L 41.890625 87.25 C 40.636719 88.5 39.882812 90.375 39.632812 92.25 C 39.378906 94.125 38.878906 96 38.125 97.75 L 37.875 98.375 C 37.25 99.875 36.246094 101.25 34.992188 102.125 C 33.738281 103.125 32.859375 104.625 32.859375 106.125 L 32.609375 111.875 C 32.609375 114.375 32.230469 116.875 31.355469 119.375 L 31.101562 120.375 C 30.476562 122 31.101562 123.75 32.609375 124.5 L 37.875 126.75 L 38.378906 127 C 38.753906 127 38.878906 127.25 39.003906 127.625 C 39.378906 128.125 39.003906 128.875 38.628906 128.875 L 37.375 129.5 C 36.621094 129.75 36.121094 130.5 35.871094 131.375 L 35.617188 132.625 L 35.617188 132.875 L 34.363281 139.875 C 34.113281 140.875 34.113281 142 34.113281 143.125 C 34.113281 144.125 34.742188 145 35.617188 145.375 L 38.378906 146.625 C 39.632812 147.375 41.136719 148.25 42.140625 149.125 L 43.394531 150.125 C 43.769531 150.625 44.398438 151.125 44.898438 151.375 L 45.402344 151.875 C 46.277344 152.625 46.90625 153.625 47.15625 154.75 L 48.410156 160.375 C 48.410156 161.875 49.664062 163.125 50.917969 163.5 L 52.925781 164.125 C 52.925781 164.125 53.300781 164.125 53.554688 164.375 L 56.0625 165.125 C 58.066406 165.75 59.824219 166.875 61.328125 168.375 C 62.832031 169.625 64.339844 171.25 65.59375 173 L 66.09375 173.5 C 67.097656 174.75 68.601562 175.375 70.109375 175 C 71.613281 174.625 73.242188 174.5 74.875 174.5 L 76.753906 174.5 C 78.007812 174.5 79.640625 174.875 81.019531 175.75 C 82.273438 176.5 83.902344 177 85.410156 177.625 L 85.785156 177.625 C 87.289062 178.25 88.921875 178 90.175781 177.125 C 91.429688 176.125 93.058594 175.625 94.691406 175.625 L 100.585938 176 C 101.839844 176 103.09375 175.75 103.71875 174.75 L 103.96875 174.75 L 106.101562 172.75 L 106.730469 172.125 C 107.734375 170.875 109.238281 170.375 110.742188 170.25 L 116.386719 170.25 C 117.890625 170.25 119.269531 169 119.898438 167.75 C 120.527344 166.5 121.78125 165.5 123.285156 165.25 L 125.792969 164.75 C 126.796875 164.75 127.675781 163.875 128.050781 162.75 C 128.425781 161.5 129.054688 160.5 129.933594 159.75 L 131.9375 157.75 C 133.191406 156.5 133.820312 155.25 134.070312 153.75 Z M 133.820312 153.875 "/>
</g>
</svg>
