<?xml version="1.0" encoding="UTF-8"?>
<svg xmlns="http://www.w3.org/2000/svg" xmlns:xlink="http://www.w3.org/1999/xlink" width="300px" height="300px" viewBox="0 0 300 300" version="1.1">
<g id="surface1">
<path style=" stroke:none;fill-rule:nonzero;fill:rgb(0%,0%,0%);fill-opacity:1;" d="M 150 11.875 C 83.003906 10.910156 25.433594 59.234375 14.777344 125.382812 C 4.117188 191.535156 43.589844 255.496094 107.5 275.625 C 113.75 276.875 118.75 270 118.75 264.375 L 118.75 246.25 C 81.25 254.375 69.375 228.125 69.375 228.125 C 66.9375 220.214844 62.140625 213.234375 55.625 208.125 C 43.125 199.375 56.25 200 56.25 200 C 64.714844 200.675781 72.359375 205.308594 76.875 212.5 C 87.5 230.625 111.25 228.75 118.75 225.625 C 118.09375 219.410156 119.175781 213.136719 121.875 207.5 C 79.375 200 56.25 175 56.25 141.25 C 55.804688 123.648438 62.316406 106.578125 74.375 93.75 C 67.527344 81.101562 68.25 65.703125 76.25 53.75 C 91.503906 54.050781 105.964844 60.601562 116.25 71.875 C 127.101562 68.171875 138.539062 66.476562 150 66.875 C 161.410156 66.519531 172.804688 68 183.75 71.25 C 194.183594 60.269531 208.605469 53.960938 223.75 53.75 C 231.558594 65.714844 232.507812 80.90625 226.25 93.75 C 238.082031 106.679688 244.367188 123.734375 243.75 141.25 C 243.75 175 220.625 200 178.125 207.5 C 180.824219 213.136719 181.90625 219.410156 181.25 225.625 L 181.25 264.375 C 181.246094 267.46875 182.515625 270.429688 184.761719 272.558594 C 187.011719 274.6875 190.035156 275.796875 193.125 275.625 C 255.433594 254.007812 293.15625 190.695312 282.515625 125.609375 C 271.871094 60.519531 215.949219 12.523438 150 11.875 Z M 150 11.875 "/>
</g>
</svg>
